#!OML:ASF F:\VICON\USERDATA\INSTALL\Justin_Nancy\Justin_Nancy.ASF
:FULLY-SPECIFIED
:DEGREES
115
root -10.2618 17.5984 15.967 2.30571 -45.9373 0.198597
lowerback 6.82134 1.81935 4.9394
upperback -1.10486 2.94502 2.41871
thorax -4.86047 1.34322 -0.572403
lowerneck -17.5568 -6.52267 -11.6876
upperneck 17.4928 -7.53255 7.70935
head 9.13636 -3.53292 3.54912
rclavicle -5.48149e-014 1.59028e-015
rhumerus -44.027 15.4973 -93.7063
rradius 115.441
rwrist -8.64503
rhand -12.1915 27.7676
rfingers 7.12502
rthumb 13.8724 -1.74973
lclavicle -5.48149e-014 1.59028e-015
lhumerus -61.5058 0.630498 90.6786
lradius 112.665
lwrist 29.6802
lhand -10.1363 10.2002
lfingers 7.12502
lthumb 15.8524 39.5712
rfemur 7.46509 5.82261 31.9188
rtibia 54.0557
rfoot 17.6974 -9.56935
rtoes 6.50983
lfemur -30.1547 0.0553197 -18.8848
ltibia 23.0995
lfoot 6.66278 -5.13911
ltoes -23.5074
116
root -10.5613 17.5359 16.2764 0.802935 -46.2657 0.943341
lowerback 7.41687 1.7662 4.13231
upperback -0.782615 2.82642 2.37135
thorax -4.89937 1.30943 -0.176237
lowerneck -17.367 -6.39467 -11.534
upperneck 16.9906 -7.39147 7.72921
head 8.9092 -3.45574 3.55204
rclavicle 0 -4.77083e-015
rhumerus -44.083 15.3223 -93.6138
rradius 115.018
rwrist -8.62039
rhand -12.0566 27.5346
rfingers 7.12502
rthumb 14.0025 -1.97383
lclavicle 0 -4.77083e-015
lhumerus -61.1732 0.562552 90.831
lradius 112.657
lwrist 29.9235
lhand -9.93162 9.96966
lfingers 7.12502
lthumb 16.0495 39.3249
rfemur 6.96324 5.26412 30.6277
rtibia 57.8446
rfoot 17.0034 -11.6646
rtoes 9.99716
lfemur -28.7852 -0.0968293 -19.7946
ltibia 23.9229
lfoot 7.15173 -6.32916
ltoes -18.5637
117
root -10.8399 17.4552 16.5355 -0.387021 -46.0768 1.53327
lowerback 8.45392 1.55155 3.14716
upperback -0.705034 2.5055 2.44483
thorax -5.45866 1.17146 0.456142
lowerneck -17.1121 -6.22098 -11.5128
upperneck 16.5903 -7.19444 7.88032
head 8.71164 -3.35046 3.63131
rclavicle -6.56983e-014 1.74931e-014
rhumerus -44.4892 15.2723 -93.4898
rradius 114.579
rwrist -8.51574
rhand -12.2717 27.6353
rfingers 7.12502
rthumb 13.7952 -1.88733
lclavicle -6.56983e-014 1.74931e-014
lhumerus -60.9139 0.558304 91.0668
lradius 112.682
lwrist 30.2538
lhand -10.0766 9.7122
lfingers 7.12502
lthumb 15.9099 39.0787
rfemur 5.75965 4.21901 29.5466
rtibia 61.7216
rfoot 16.4069 -13.4956
rtoes 14.0196
lfemur -27.9962 -0.0178938 -20.6671
ltibia 25.4972
lfoot 6.10767 -7.61153
ltoes -10.4068
118
root -11.1159 17.3721 16.8061 -0.751461 -46.138 1.106
lowerback 9.29579 1.38359 2.99644
upperback -0.610175 2.31383 2.6705
thorax -5.85379 1.07874 0.780728
lowerneck -16.9807 -6.05026 -11.4865
upperneck 16.2686 -6.99109 8.0265
head 8.56232 -3.23993 3.70627
rclavicle 1.11965e-013 0
rhumerus -44.7339 15.0219 -93.5147
rradius 113.852
rwrist -8.25363
rhand -12.5454 27.5476
rfingers 7.12502
rthumb 13.5314 -1.99271
lclavicle 1.11965e-013 0
lhumerus -60.4986 0.454431 91.2884
lradius 112.697
lwrist 30.6441
lhand -10.3604 9.46408
lfingers 7.12502
lthumb 15.6366 38.8521
rfemur 4.33266 3.14621 29.0231
rtibia 65.4525
rfoot 15.5978 -14.2747
rtoes 15.2975
lfemur -27.4029 0.0418534 -20.6806
ltibia 27.8399
lfoot 3.26131 -7.5597
ltoes -7.09918
119
root -11.3966 17.2837 17.0993 -0.960706 -46.3847 0.5234
lowerback 9.75865 1.2887 3.06673
upperback -0.406183 2.22023 2.92101
thorax -5.90923 1.03251 1.00823
lowerneck -16.861 -5.95008 -11.4551
upperneck 15.924 -6.8505 8.01487
head 8.40838 -3.17337 3.716
rclavicle 1.00883e-014 -3.97569e-014
rhumerus -44.7828 14.5868 -93.3716
rradius 113.068
rwrist -8.03254
rhand -12.493 27.2884
rfingers 7.12502
rthumb 13.5818 -2.24856
lclavicle 1.00883e-014 -3.97569e-014
lhumerus -59.7239 0.20217 91.5986
lradius 112.551
lwrist 30.8603
lhand -10.7254 9.66754
lfingers 7.12502
lthumb 15.285 39.0828
rfemur 2.89102 2.02049 28.3962
rtibia 68.9525
rfoot 14.787 -14.5623
rtoes 14.56
lfemur -26.7569 0.462126 -20.6537
ltibia 30.7533
lfoot 0.654773 -6.76084
ltoes -4.74152
